<svg viewBox="0 0 307.81 117.04" xmlns="http://www.w3.org/2000/svg"><path d="m100.12 59.38c.28-.07 4.87-1.32 7.34-3.22 0 0-3.56 5.96-10.85 13.03-.25.21-.59.45-.89.67-.34.24-.69.48-1.04.71-.7.46-1.43.91-2.17 1.34-1.49.85-3.03 1.64-4.61 2.37-1.58.71-3.2 1.39-4.85 1.97-1.65.6-3.34 1.1-5.05 1.58 1.76-.13 3.54-.29 5.3-.55 1.65-.22 3.29-.55 4.93-.92-7.62 5.69-17.55 11.09-29.88 13.9l1.01-1.87c1.51-2.81 3.09-5.58 4.72-8.32.31-.52.62-1.04.94-1.56 30.09-9.59 38.48-37.61 43.05-45.37 3.62-6.15 5.92-6.29 8.73-7.73-1.93 1.45-3.52 4.36-4.24 8.04-1.41 7.29-2.54 19.35-12.42 25.95z" fill="#ccbca3"/><g fill="#48062e"><path d="m125.94 55.12c0 3.96 3.21 7.16 7.16 7.16s7.16-3.21 7.16-7.16-3.21-7.16-7.16-7.16-7.16 3.21-7.16 7.16z"/><path d="m31.31 71.93c0-3.96-3.21-7.16-7.16-7.16s-7.16 3.21-7.16 7.16 3.21 7.16 7.16 7.16 7.16-3.21 7.16-7.16z"/><path d="m126.3 45.87c.32 0 .63-.05.93-.15 1.61-.51 2.5-2.24 1.99-3.85-.41-1.28-1.58-2.13-2.92-2.13-.32 0-.63.05-.93.15-.78.25-1.42.79-1.79 1.51-.38.73-.44 1.56-.19 2.34.41 1.28 1.58 2.13 2.92 2.13z"/><path d="m30.95 81.99c-.32 0-.63.05-.93.15-.78.25-1.42.79-1.79 1.51-.37.73-.44 1.56-.19 2.34.41 1.28 1.58 2.13 2.92 2.13.32 0 .63-.05.93-.15 1.61-.51 2.5-2.24 1.99-3.85-.41-1.28-1.58-2.13-2.92-2.13z"/><path d="m172.59 67.09c-2.12-3.25-4.95-5.71-8.48-7.38.97-.96 1.77-2.03 2.39-3.21.61-1.17.99-2.53 1.13-4.05.15-2.35-.4-4.51-1.65-6.49-1.25-1.97-2.56-3.64-3.96-5.03-1.37-1.45-2.84-2.78-4.36-3.99-1.53-1.21-2.78-2.27-3.75-3.16-1.25-1.11-2.36-2.27-3.32-3.48-.98-1.21-1.74-2.54-2.29-4-.56-1.44-.87-3.02-.95-4.72-.07-1.69.21-3.61.84-5.76l-5.92-1.75c-1.04 3.45-1.4 6.51-1.1 9.16.31 2.67 1.05 5.11 2.23 7.32v57.26h6.22v-24.17c.63-.07 1.24-.11 1.87-.16.61-.03 1.21-.04 1.77-.04h1.34c4.5.34 8.06 1.8 10.68 4.35 2.64 2.57 3.94 5.92 3.94 10.07 0 1.66-.45 3.48-1.35 5.44-.89 1.98-2.26 3.79-4.09 5.45-1.84 1.65-4.19 3.01-7.05 4.05-2.87 1.03-6.28 1.49-10.23 1.34-1.24 0-2.55-.13-3.94-.41-1.37-.28-2.79-.67-4.25-1.18-1.45-.53-2.87-1.2-4.26-2.03-.83-.49-2.4-1.62-2.4-1.62-1.52-1.1-2.98-2.26-4.35-3.51-1.64-1.51-3.16-3.12-4.62-4.79-.28-.32-.56-.65-.83-.97-1.14-1.37-2.23-2.77-3.23-4.24 1.39 1.61 2.87 3.11 4.41 4.55.07.04.11.1.17.16.74.67 1.49 1.33 2.25 1.97.91.76 1.83 1.5 2.78 2.2 1.74 1.26 3.54 2.41 5.4 3.4 3.32-2.54 5.3-6.75 4.65-11.36-.8-5.86-5.62-10.12-11.47-10.37-.18-.01-.36-.01-.54-.01-1.06 0-2.09.15-3.08.39.06-.75.08-1.5.08-2.28.01-.17.01-.34.01-.5 0-2.53-.21-5.01-.61-7.41-1.21-7.23-4.16-13.87-8.39-19.49l-.04-1.17-.03-1.1c-.02-.34-.02-.88 0-1.22.08-1.6.4-3.25.91-4.81.15-.46.32-.92.54-1.34.28-.59.61-1.15 1.12-1.61-.54.32-.98.8-1.36 1.32-.02.02-.03.06-.06.08-.04.06-.09.11-.11.17-.41.56-.76 1.16-1.06 1.79-.63 1.23-1.11 2.51-1.46 3.89-.02.03-.03.08-.03.11-.01.02-.01.04-.02.07s-.01.06-.02.08c-.07.28-.15.7-.2 1.05-.01.07-.02.13-.03.19s-.01.11-.02.16l-.06.28c-.1.58-.2 1.17-.32 1.8-.18 1.04-.37 2.13-.61 3.26-.1.56-.22 1.14-.37 1.72-.06.29-.12.58-.2.88 0 .03-.01.07-.02.1-.11.5-.26 1.02-.4 1.52-.02.04-.03.09-.04.13v.02c-.08.29-.16.58-.26.87-.08.3-.18.59-.29.89-.09.3-.19.59-.3.89-.12.36-.26.72-.4 1.07-.07.19-.15.38-.23.58-.13.32-.27.66-.42.99-.27.59-.55 1.16-.86 1.73 0 0 0 .01-.01.01-.13.28-.3.56-.47.84-.17.29-.34.57-.53.85-.15.23-.3.47-.47.7-.12.18-.23.35-.36.51-.11.15-.22.29-.34.44-.04.06-.08.11-.11.17-.1.13-.2.26-.31.38-.17.2-.34.4-.53.61-.19.23-.4.46-.61.68-.11.12-.22.23-.35.36-.12.11-.25.25-.37.36-.18.18-.36.35-.55.51s-.37.32-.57.48c-.19.18-.38.34-.58.47-.4.31-.82.61-1.24.92.39-.11 4.88-1.35 7.3-3.23 0 .02-.02.03-.03.06-.03.06-.1.15-.17.28-.01.01-.03.04-.06.08-.01.02-.02.04-.04.07-.1.17-.23.37-.4.61-.04.08-.11.17-.18.27-.11.18-.26.38-.41.6-.07.1-.16.22-.25.35-.15.2-.3.42-.47.66-.12.17-.26.35-.39.53-1.78 2.41-4.58 5.84-8.41 9.6-.25.2-.59.45-.89.66-.34.25-.68.48-1.04.72-.7.47-1.43.93-2.17 1.34-1.49.86-3.03 1.65-4.6 2.38-1.59.72-3.18 1.4-4.84 1.98-1.56.58-3.15 1.05-4.76 1.51t-.02.01c-.08.02-.18.03-.26.07 1.77-.12 3.54-.29 5.29-.56 1.59-.21 3.15-.53 4.73-.88.07-.01.13-.01.2-.03-7.61 5.71-17.52 11.14-29.83 13.96l.08-.16h.01l.92-1.72c1.51-2.83 3.08-5.61 4.72-8.37.32-.56.66-1.12.99-1.68 2.96-4.94 6.11-9.76 9.43-14.48 3.7-5.25 7.71-10.27 11.93-15.12l3.27-3.55.82-.89.85-.84 1.73-1.69 1.72-1.71.44-.41.45-.39.92-.8 3.64-3.18-3.86 2.93-.97.74-.49.36-.46.39-1.84 1.59-1.84 1.58-.93.79-.88.83-3.53 3.34c-4.59 4.58-9 9.38-13.1 14.42-4.11 5.04-8.02 10.25-11.71 15.62-.99 1.44-1.98 2.91-2.94 4.38-3.27 5.63-5.38 11.51-6.69 16.44 7.58 5.93 17.12 9.47 27.49 9.47 3.99 0 7.86-.53 11.53-1.5 1.77-.48 3.49-1.05 5.16-1.73.03-.01.06-.02.09-.04l-.1-.13c-.82-1.07-.61-2.22.61-2.98.32-.21.66-.28.98-.28h.01s.09.08.13.1c.21.12.49.32.84.61.04-.15.09-.3.13-.45.1-.54.12-1.08.04-1.63-.1-.75-.4-1.49-.92-2.12-.02-.03-.04-.07-.07-.09-.02-.03-.06-.07-.08-.1-.07-.07-.12-.13-.2-.2t-.01-.02l-.13-.13-1.07-1.08c-4.4-4.39-4.4-11.52 0-15.91 4.4-4.4 11.52-4.4 15.91 0l4.05 4.03.11.11s10.27 9.44 18.43 12.87c.67.3 1.35.58 2.04.84 1.8.66 3.55 1.15 5.3 1.45 1.72.31 3.34.5 4.87.58 4.63.2 8.73-.32 12.29-1.56s6.56-2.91 8.98-4.98 4.31-4.46 5.65-7.15c1.33-2.7 2.07-5.4 2.21-8.09.21-4.43-.74-8.27-2.86-11.51zm-12.07-12.55c-.49.61-1.1 1.12-1.82 1.5-.73.38-1.52.67-2.38.88-.87.21-1.72.31-2.55.31h-2.08c-.69 0-1.37.07-2.07.2v-19.19c0 .07.03.1.1.1 1.11 1.04 2.37 2.13 3.78 3.26 1.42 1.15 2.76 2.37 4.01 3.69 2.69 2.7 3.97 4.98 3.83 6.85-.07.97-.36 1.77-.83 2.39z"/><path d="m206.05 49.56c-1.38 0-2.71.26-3.99.78s-2.4 1.26-3.37 2.23-1.76 2.14-2.39 3.53c-.62 1.38-.93 2.9-.93 4.56v15.25c0 1.66.24 3.22.73 4.67.08.25.18.49.28.73h-5.05c-1.66 0-2.84-.64-3.53-1.92s-1.04-2.68-1.04-4.2v-44.62h-6.22v44.71c0 1.52.22 3.03.67 4.51.45 1.49 1.14 2.8 2.07 3.94s2.06 2.06 3.37 2.75 2.87 1.04 4.67 1.04h8.82v-1.3c.53.37 1.09.69 1.71.94 1.42.59 2.92.88 4.51.88 1.31 0 2.63-.26 3.94-.78s2.47-1.26 3.48-2.23c1-.97 1.81-2.14 2.44-3.53.62-1.38.93-2.91.93-4.56v-15.25c0-3.32-.95-6.17-2.85-8.56s-4.65-3.58-8.25-3.58zm4.88 27.18c0 1.38-.38 2.61-1.14 3.68s-1.97 1.61-3.63 1.61c-1.11 0-2.14-.4-3.11-1.19s-1.45-2.06-1.45-3.79v-16.39c0-1.73.5-2.97 1.5-3.73s1.99-1.14 2.96-1.14c1.45 0 2.63.47 3.53 1.4s1.35 2.23 1.35 3.89v15.66z"/><path d="m291.93 81.3c-1.45 0-2.59-.54-3.42-1.61s-1.25-2.58-1.25-4.51v-14.31c0-1.52-.28-2.99-.83-4.41s-1.31-2.65-2.28-3.68c-.97-1.04-2.11-1.87-3.42-2.49s-2.73-.93-4.25-.93c-1.73 0-3.25.31-4.56.93v-20.65h-6.22v51.66h-14.21c-1.66 0-2.84-.6-3.53-1.81s-1.04-2.61-1.04-4.2v-12.97c0-.62.07-1.3.21-2.02.14-.73.38-1.38.73-1.97s.81-1.07 1.4-1.45 1.33-.57 2.23-.57h9.44l-2.07-6.22h-7.36c-3.32 0-5.95 1.18-7.88 3.53-1.94 2.35-2.9 5.22-2.9 8.61v13.17c0 1.59.22 3.11.67 4.56.15.47.33.91.52 1.35h-7.11c-1.66 0-2.84-.64-3.53-1.92s-1.04-2.68-1.04-4.2v-18.88h6.33l2.07-6.22h-8.4v-20.45h-6.22v20.43h-4.05v6.22h4.05v18.98c0 1.52.22 3.03.67 4.51.45 1.49 1.14 2.8 2.07 3.94s2.06 2.06 3.37 2.75 2.87 1.04 4.67 1.04h10.17v-2.26c.57.46 1.19.87 1.87 1.23 1.31.69 2.87 1.04 4.67 1.04h20.43v-26.66c0-1.38.35-2.61 1.04-3.68s1.87-1.61 3.53-1.61c1.04 0 2.06.43 3.06 1.3s1.5 2.2 1.5 3.99v14.63c0 3.53 1.04 6.43 3.11 8.71 2.01 2.21 4.6 3.32 7.78 3.32h13.8l2.08-6.22h-15.87z"/><path d="m42.53 110.77c.07-.15 1.4-2.67 7.33-6.46.32-1.64.74-3.52 1.28-5.57-1.24-.96-2.42-1.99-3.55-3.09-2.2 6.19-4.41 12.58-5.06 15.11z"/><path d="m64.92 49.44c-.4 1.5-.78 3.01-1.05 4.53-.35 1.75-.59 3.51-.8 5.26.55-1.68 1.14-3.34 1.81-4.96.65-1.63 1.41-3.2 2.19-4.75.8-1.54 1.66-3.04 2.59-4.48.46-.72.94-1.43 1.44-2.11.25-.34.5-.68.76-1 .25-.31.52-.66.74-.9 4.47-4.09 9.93-7.93 16.58-11.29-.43.68-.86 1.36-1.26 2.05-.89 1.56-1.75 3.13-2.49 4.75-.77 1.61-1.44 3.25-2.08 4.9.95-1.49 1.93-2.96 2.98-4.35 1.03-1.41 2.16-2.75 3.3-4.06 1.16-1.3 2.36-2.53 3.62-3.7.62-.59 1.27-1.15 1.92-1.69.32-.27.65-.53.98-.79l.03-.02v.02c.12-.07.34-.18.52-.27l.58-.28c.4-.18.79-.35 1.2-.52.81-.34 1.65-.64 2.49-.93 1.69-.57 3.43-1.05 5.19-1.48 1.76-.44 3.54-.78 5.34-1.09.9-.16 1.8-.28 2.7-.42l2.72-.35-2.75-.06c-.92 0-1.83 0-2.75.02-1.84.05-3.68.12-5.52.3-1.84.17-3.69.39-5.53.72-.92.17-1.84.35-2.75.58-5.76-2.71-12.19-4.22-18.97-4.22-5.91 0-11.54 1.15-16.7 3.23-2.98 1.2-3.76 5.07-1.48 7.35l1.21 1.21c4.39 4.4 4.39 11.52 0 15.92-4.4 4.39-11.52 4.39-15.92 0l-5.65-5.65-.05.09c-2.55-2.89-6.45-4.56-10.72-4-5.46.71-9.81 5.17-10.41 10.64-.8 7.31 4.9 13.5 12.05 13.5 1.07 0 2.1-.14 3.09-.4-.06.93-.09 1.85-.09 2.79 0 12.62 5.23 24.02 13.64 32.13 2.2-6.19 4.39-12.15 5-13.81.65-7.79 3.22-20.4 12.32-32.4z"/><path d="m59.07 28.19s-11.64-11.27-16.11-15.86-10.2-7.05-10.44-9.31 2.43-5.13 6.48-.69c4.05 4.43 17.19 18.53 20.16 20.29 2.97 1.77 2.58 7.37-.1 5.57z"/><path d="m57.06 21.95s1.98 1.53 3.76.44 2.1-2.76.94-4.32-2.92-4.56-1.04-5.5c1.89-.95 3.71 2.19 4.82 2.32s1.59-.92 3.3.19 4.62 4.67 4.57 5.52c-.06.85-11.96 9.66-13.8 8s-2.55-6.65-2.55-6.65z"/><path d="m24.98 60.64s-10.54 3.67-14.75 4.99-7.5 4.08-8.97 3.53c-1.47-.55-2.4-3.09 1.58-4.2 3.98-1.12 16.73-4.83 18.74-6.11s5.34.7 3.4 1.79z"/><path d="m20.52 59.94s1.55-.74 1.44-2.18c-.11-1.43-1.05-2.15-2.37-1.92s-3.71.38-3.71-1.07 2.5-1.61 2.92-2.25-.07-1.26 1.14-1.97 4.31-1.4 4.81-1.1c.51.3 2.23 10.35.64 10.97s-4.88-.49-4.88-.49z"/><path d="m111.1 115.47c-2.54-2.73-10.19-10.76-13.21-13.22-.35-.29-.63-.49-.84-.61-.04-.02-.09-.06-.13-.1h-.01c-1.8-1.2-1.66-4.53-.1-3.88.01 0 .02 0 .04.01.08.03.16.08.23.13 0 0 8.1 7.68 11.21 10.81 3.12 3.12 7.08 4.78 7.26 6.34.19 1.55-1.63 3.55-4.46.53z"/><path d="m98.52 102.08s-.19-.15-.49-.28c-.29-.13-.68-.27-1.11-.27h-.01c-.32 0-.66.07-.98.28-1.23.76-1.43 1.91-.61 2.98l.1.13c.79 1.08 1.89 3.01.65 3.64-1.29.67-2.57-1.48-3.33-1.55-.77-.08-1.1.64-2.28-.11-.09-.06-.19-.12-.29-.2-1.2-.91-2.93-3.03-2.89-3.56.03-.58 7.99-6.62 9.4-5.64.01 0 .03.01.04.02.04.04.1.09.15.15.06.06.11.12.16.19.02.03.06.07.08.1.02.02.04.06.07.09.4.59.7 1.4.92 2.12.31 1.03.45 1.91.45 1.91z"/><circle cx="25.09" cy="32.34" r=".96"/><path d="m21.76 27.56c0 1.62-1.31 2.93-2.93 2.93s-2.93-1.31-2.93-2.93 1.31-2.93 2.93-2.93 2.93 1.31 2.93 2.93z"/><path d="m16.26 39.74c0 1.06-.86 1.93-1.93 1.93s-1.93-.86-1.93-1.93.86-1.93 1.93-1.93 1.93.86 1.93 1.93z"/><path d="m108.81 108.44c-.38-.38-.38-.99 0-1.36.38-.38.99-.38 1.36 0 .38.38.38.99 0 1.36-.38.38-.99.38-1.36 0z"/><path d="m115.23 108.79c-1.14-1.14-1.14-3 0-4.14s3-1.14 4.14 0 1.14 3 0 4.14-3 1.14-4.14 0z"/><path d="m110.5 96.29c-.75-.75-.75-1.97 0-2.72s1.97-.75 2.72 0 .75 1.97 0 2.72-1.97.75-2.72 0z"/></g></svg>